<?xml version="1.0" standalone="no"?>
<!DOCTYPE svg PUBLIC "-//W3C//DTD SVG 20010904//EN"
 "http://www.w3.org/TR/2001/REC-SVG-20010904/DTD/svg10.dtd">
<svg version="1.0" xmlns="http://www.w3.org/2000/svg"
 width="713.000000pt" height="713.000000pt" viewBox="0 0 713.000000 713.000000"
 preserveAspectRatio="xMidYMid meet">
<metadata>
Created by potrace 1.14, written by Peter Selinger 2001-2017
</metadata>
<g transform="translate(0.000000,713.000000) scale(0.100000,-0.100000)"
fill="#000000" stroke="none">
<path d="M4603 5311 c-74 -69 -160 -109 -273 -126 -25 -4 -52 -9 -60 -10 -8
-2 -49 -6 -90 -9 -41 -4 -131 -16 -199 -27 -411 -68 -735 -305 -878 -642 -28
-69 -62 -176 -68 -222 -3 -16 -8 -41 -11 -55 -8 -32 -14 -345 -7 -386 l5 -32
52 24 c28 13 69 26 90 30 21 3 47 7 57 9 18 4 95 9 279 20 280 16 474 61 628
146 80 43 153 96 180 130 13 17 29 26 35 22 7 -3 10 -3 6 0 -3 4 23 36 57 72
145 150 253 397 282 640 8 69 8 259 0 325 -13 101 -21 140 -27 140 -3 -1 -29
-22 -58 -49z"/>
<path d="M1827 4815 c-20 -72 -26 -222 -12 -305 40 -235 155 -425 320 -529
132 -84 239 -111 490 -126 126 -7 174 -15 223 -36 l42 -18 1 47 c10 294 -56
483 -221 640 -113 108 -301 187 -490 206 -198 20 -267 44 -326 115 -20 24 -22
24 -27 6z"/>
<path d="M5562 3390 l3 -315 45 0 45 0 1 150 c1 161 11 202 56 226 32 17 100
14 130 -5 40 -26 48 -65 48 -228 l0 -148 49 1 49 2 0 155 c0 84 -5 170 -10
190 -35 127 -180 171 -298 91 l-25 -17 1 104 c1 99 0 104 -20 105 -12 0 -33 2
-49 3 l-27 2 2 -316z"/>
<path d="M2088 3695 c-2 -1 -32 -6 -66 -9 -76 -8 -192 -44 -276 -87 -209 -106
-354 -296 -421 -555 -45 -171 -43 -442 4 -624 65 -252 232 -460 451 -562 204
-95 421 -108 695 -42 6 1 39 14 75 29 237 98 305 247 176 383 -72 78 -119 80
-236 13 -47 -27 -110 -56 -140 -65 -72 -21 -209 -22 -280 -1 -73 22 -166 85
-214 147 -40 51 -91 160 -101 216 -51 289 -1 533 135 661 107 101 276 139 437
98 62 -16 89 -29 188 -87 28 -16 63 -29 78 -30 123 -1 238 173 183 279 -44 85
-219 184 -381 215 -16 4 -41 9 -55 12 -27 6 -246 14 -252 9z"/>
<path d="M3561 3678 c-264 -54 -471 -209 -585 -436 -37 -73 -83 -216 -91 -282
-4 -30 -9 -59 -12 -63 -6 -10 -5 -295 1 -323 2 -12 7 -39 10 -60 48 -308 241
-564 506 -670 121 -50 207 -66 360 -69 80 -2 168 1 195 6 28 5 62 12 76 14 65
12 248 83 269 105 3 3 23 17 46 32 96 62 209 199 264 322 69 152 98 304 95
501 -3 142 -5 162 -30 272 -68 294 -269 526 -535 618 -3 1 -12 4 -20 8 -8 3
-27 8 -42 11 -16 4 -31 7 -35 8 -131 32 -334 35 -472 6z m441 -410 c71 -38
147 -119 183 -196 87 -183 88 -498 3 -666 -82 -162 -201 -242 -373 -253 -128
-8 -235 23 -319 94 -55 46 -126 151 -140 208 -2 6 -6 17 -9 25 -35 81 -42 352
-13 465 38 143 104 244 202 309 128 84 324 90 466 14z"/>
<path d="M129 3657 c-53 -14 -92 -49 -111 -102 -16 -43 -18 -110 -18 -826 0
-593 3 -785 13 -806 24 -56 50 -82 95 -100 43 -16 88 -18 507 -18 445 0 461 1
499 21 55 28 80 79 79 164 0 77 -22 132 -66 164 -27 20 -43 21 -373 24 l-344
3 0 193 0 194 259 0 c239 0 263 2 306 21 37 17 50 29 67 67 28 64 22 176 -11
223 -44 62 -58 65 -351 66 l-265 1 -3 172 c-2 134 0 172 10 172 7 1 152 1 323
1 245 0 317 4 344 15 68 29 96 89 89 194 -6 73 -23 108 -72 143 -31 22 -32 22
-487 22 -250 1 -471 -3 -490 -8z"/>
<path d="M5140 3655 c-80 -36 -107 -89 -101 -194 0 -14 18 -40 40 -61 31 -29
57 -42 126 -61 135 -37 177 -91 122 -155 -33 -38 -110 -45 -150 -14 -16 13
-32 33 -37 45 -7 19 -16 23 -54 22 -56 -1 -64 -16 -34 -70 30 -52 64 -77 129
-91 133 -30 249 36 262 150 11 91 -37 142 -174 185 -70 23 -106 39 -119 57
-25 32 -19 70 16 100 22 19 35 23 71 19 44 -4 93 -38 93 -64 0 -9 16 -13 54
-13 54 0 55 0 50 27 -8 41 -32 76 -72 102 -48 32 -168 40 -222 16z"/>
<path d="M6238 3536 c-112 -40 -167 -133 -155 -261 14 -151 152 -241 301 -198
66 20 91 38 127 90 32 46 40 72 43 138 8 168 -157 288 -316 231z m153 -93 c56
-33 81 -137 50 -210 -29 -70 -134 -104 -197 -65 -77 49 -87 202 -16 265 41 37
110 41 163 10z"/>
<path d="M6830 3535 c-19 -9 -45 -26 -57 -37 l-23 -21 0 31 c0 32 -1 32 -50
32 l-50 0 0 -345 0 -345 49 0 48 0 1 108 c0 59 1 122 1 140 l1 33 31 -22 c95
-67 228 -52 292 33 41 56 50 80 53 150 5 109 -31 185 -108 228 -52 29 -141 36
-188 15z m118 -84 c70 -29 103 -137 66 -216 -69 -144 -265 -91 -264 71 1 69
26 115 78 141 45 22 73 23 120 4z"/>
</g>
</svg>
